<svg xmlns="http://www.w3.org/2000/svg" xmlns:xlink="http://www.w3.org/1999/xlink" width="500" zoomAndPan="magnify" viewBox="0 0 375 374.999991" height="500" preserveAspectRatio="xMidYMid meet" version="1.0"><defs><clipPath id="c03e773c6f"><path d="M 6.566406 6.566406 L 368.433594 6.566406 L 368.433594 368.433594 L 6.566406 368.433594 Z M 6.566406 6.566406 " clip-rule="nonzero"/></clipPath><clipPath id="44dc4f0b99"><path d="M 187.5 6.566406 C 87.574219 6.566406 6.566406 87.574219 6.566406 187.5 C 6.566406 287.425781 87.574219 368.433594 187.5 368.433594 C 287.425781 368.433594 368.433594 287.425781 368.433594 187.5 C 368.433594 87.574219 287.425781 6.566406 187.5 6.566406 Z M 187.5 6.566406 " clip-rule="nonzero"/></clipPath><clipPath id="eb8680930b"><path d="M 63.429688 109.714844 L 279.429688 109.714844 L 279.429688 262 L 63.429688 262 Z M 63.429688 109.714844 " clip-rule="nonzero"/></clipPath><clipPath id="97909ad642"><path d="M 106 264 L 139 264 L 139 295.714844 L 106 295.714844 Z M 106 264 " clip-rule="nonzero"/></clipPath><clipPath id="dcf073acbb"><path d="M 229 264 L 261 264 L 261 295.714844 L 229 295.714844 Z M 229 264 " clip-rule="nonzero"/></clipPath></defs><g clip-path="url(#c03e773c6f)"><g clip-path="url(#44dc4f0b99)"><path fill="#38b6ff" d="M 6.566406 6.566406 L 368.433594 6.566406 L 368.433594 368.433594 L 6.566406 368.433594 Z M 6.566406 6.566406 " fill-opacity="1" fill-rule="nonzero"/></g></g><g clip-path="url(#eb8680930b)"><path fill="#ffffff" d="M 279.214844 139.394531 C 278.660156 136.746094 276.28125 134.59375 273.539062 134.558594 C 219.828125 134.535156 166.109375 134.550781 112.394531 134.5625 C 111.3125 134.5625 111.457031 134.558594 111.160156 133.667969 C 110.253906 130.558594 109.292969 127.464844 108.382812 124.359375 C 106.089844 116.171875 98.578125 109.882812 89.972656 109.789062 C 87.402344 109.707031 84.832031 109.710938 82.257812 109.714844 C 78.417969 109.714844 74.582031 109.726562 70.742188 109.714844 C 69.558594 109.714844 68.441406 109.957031 67.367188 110.457031 C 61.378906 113.308594 62.589844 122.160156 69.21875 123.351562 C 76.414062 123.753906 83.660156 123.351562 90.875 123.488281 C 93.671875 123.523438 95.753906 125.363281 96.320312 128.046875 C 98.082031 133.910156 99.835938 139.777344 101.589844 145.644531 C 106.730469 162.773438 111.773438 179.925781 116.898438 197.054688 C 118.992188 203.925781 121.003906 210.816406 123.117188 217.679688 C 123.871094 220.101562 125.046875 222.277344 126.65625 224.230469 C 127.152344 224.828125 127.636719 225.429688 128.128906 226.027344 C 128.195312 226.113281 128.183594 226.25 128.105469 226.308594 C 119.117188 232.625 112.320312 241.960938 108.734375 252.316406 C 107.933594 254.410156 107.753906 256.3125 108.980469 258.292969 C 110.179688 260.234375 111.894531 261.304688 114.199219 261.351562 C 139.59375 261.394531 164.992188 261.367188 190.386719 261.375 C 215.289062 261.378906 240.191406 261.367188 265.09375 261.363281 C 266.9375 261.4375 268.820312 261.257812 270.273438 260 C 274.875 256.226562 271.5 249.398438 266.261719 249.347656 C 238.898438 249.25 211.527344 249.339844 184.160156 249.316406 C 164.292969 249.289062 144.429688 249.335938 124.5625 249.335938 C 124.160156 249.277344 124.414062 248.832031 124.554688 248.578125 C 127.875 241.71875 133.3125 235.882812 140.246094 232.617188 C 172.648438 232.632812 205.335938 232.695312 237.835938 232.621094 C 243.855469 232.53125 249.792969 229.617188 253.511719 224.882812 C 256.964844 220.613281 257.667969 215.007812 259.304688 209.921875 C 262.613281 198.421875 266.027344 186.957031 269.339844 175.453125 C 271.8125 166.644531 274.449219 157.882812 276.992188 149.085938 C 277.523438 147.261719 278.058594 145.441406 278.589844 143.613281 C 278.96875 142.234375 279.597656 140.84375 279.214844 139.394531 Z M 208.292969 172.320312 C 208.664062 164.652344 209.085938 156.988281 209.441406 149.320312 C 209.496094 148.292969 209.539062 148.335938 210.492188 148.335938 C 219.652344 148.394531 228.808594 148.292969 237.964844 148.355469 C 238.210938 148.367188 238.351562 148.488281 238.304688 148.777344 C 237.601562 153.226562 236.777344 157.65625 235.960938 162.085938 C 235.339844 165.554688 234.671875 169.007812 234.09375 172.476562 C 234.035156 172.824219 233.886719 172.945312 233.507812 172.9375 C 229.386719 172.855469 225.265625 172.917969 221.148438 172.898438 C 221.148438 172.886719 221.148438 172.878906 221.148438 172.871094 C 216.957031 172.871094 212.761719 172.980469 208.574219 172.925781 C 208.320312 172.871094 208.269531 172.550781 208.292969 172.320312 Z M 122.722656 172.648438 C 120.359375 164.914062 118.148438 157.132812 115.894531 149.363281 C 115.882812 149.105469 115.46875 148.414062 115.871094 148.335938 C 118.511719 148.308594 121.148438 148.332031 123.789062 148.324219 C 123.789062 148.328125 123.789062 148.335938 123.789062 148.339844 C 126.214844 148.339844 128.644531 148.339844 131.074219 148.339844 C 132.082031 148.339844 132.050781 148.355469 132.203125 149.304688 C 132.671875 152.152344 133.101562 155.003906 133.554688 157.851562 C 134.328125 162.675781 135.105469 167.5 135.84375 172.332031 C 135.90625 172.855469 135.738281 172.941406 135.265625 172.929688 C 131.222656 172.933594 127.171875 172.867188 123.125 172.929688 C 122.949219 172.929688 122.789062 172.835938 122.722656 172.648438 Z M 130.152344 196.515625 C 129.921875 196.511719 129.746094 196.425781 129.664062 196.191406 C 129.503906 195.726562 129.316406 195.269531 129.179688 194.800781 C 127.808594 190.074219 126.371094 185.359375 125.046875 180.621094 C 125.011719 180.445312 125.144531 180.28125 125.339844 180.269531 C 127.238281 180.234375 129.140625 180.265625 131.042969 180.253906 C 132.941406 180.273438 134.84375 180.214844 136.738281 180.28125 C 137.296875 180.324219 137.152344 181.535156 137.296875 181.972656 C 138.011719 186.59375 138.71875 191.214844 139.410156 195.84375 C 139.421875 196.058594 139.503906 196.421875 139.226562 196.480469 C 136.210938 196.601562 133.171875 196.496094 130.152344 196.515625 Z M 142.808594 220.628906 C 134.265625 218.691406 134.398438 211.617188 132.160156 204.652344 C 132.132812 204.476562 132 204.191406 132.214844 204.097656 C 133.574219 203.953125 134.953125 204.078125 136.316406 204.039062 C 137.652344 204.050781 138.992188 204.019531 140.324219 204.0625 C 140.507812 204.070312 140.664062 204.203125 140.703125 204.375 C 141.234375 207.0625 141.644531 209.773438 142.039062 212.484375 C 142.402344 214.914062 142.875 217.332031 143.222656 219.765625 C 143.253906 220.140625 143.414062 220.828125 142.808594 220.628906 Z M 143.078125 172.195312 C 141.949219 164.328125 140.597656 156.480469 139.550781 148.609375 C 139.664062 148.214844 140.148438 148.382812 140.460938 148.339844 C 144.757812 148.347656 149.050781 148.355469 153.34375 148.351562 C 153.34375 148.347656 153.34375 148.339844 153.34375 148.335938 C 157.847656 148.359375 162.359375 148.285156 166.859375 148.367188 C 167.140625 148.398438 167.183594 148.714844 167.191406 148.945312 C 167.246094 149.824219 167.304688 150.703125 167.347656 151.582031 C 167.6875 158.402344 167.925781 165.226562 168.199219 172.046875 C 168.15625 172.308594 168.300781 172.800781 167.964844 172.886719 C 159.8125 172.964844 151.632812 172.945312 143.472656 172.863281 C 143.164062 172.824219 143.121094 172.449219 143.078125 172.195312 Z M 146.832031 196.152344 C 146.316406 193.382812 145.949219 190.589844 145.511719 187.808594 C 145.195312 185.722656 144.855469 183.636719 144.5625 181.542969 C 144.363281 180.109375 144.132812 180.238281 145.65625 180.238281 C 149.25 180.242188 152.84375 180.238281 156.4375 180.238281 C 156.4375 180.246094 156.4375 180.253906 156.4375 180.261719 C 160.347656 180.28125 164.257812 180.210938 168.167969 180.292969 C 168.492188 180.351562 168.484375 180.722656 168.492188 180.984375 C 168.539062 181.933594 168.585938 182.886719 168.625 183.835938 C 168.804688 187.808594 169.003906 191.785156 169.105469 195.765625 C 169.121094 196.066406 169.097656 196.496094 168.714844 196.496094 C 161.777344 196.542969 154.835938 196.5 147.898438 196.519531 C 147.527344 196.492188 146.898438 196.671875 146.832031 196.152344 Z M 170.011719 220.800781 C 163.6875 220.945312 157.339844 220.832031 151.011719 220.859375 C 150.457031 220.785156 150.589844 220.027344 150.457031 219.617188 C 149.894531 216.074219 149.332031 212.527344 148.777344 208.988281 C 148.554688 207.523438 148.339844 206.0625 148.125 204.601562 C 148.085938 204.410156 148.097656 204.113281 148.332031 204.09375 C 151.816406 203.992188 155.300781 204.085938 158.785156 204.058594 C 158.785156 204.046875 158.785156 204.039062 158.785156 204.023438 C 161.953125 204.023438 165.125 204.023438 168.289062 204.023438 C 169.609375 204.023438 169.480469 203.953125 169.542969 205.207031 C 169.589844 206.15625 169.625 207.105469 169.671875 208.054688 C 169.8125 211.007812 170 213.960938 170.09375 216.914062 C 170.015625 217.449219 170.527344 220.851562 170.011719 220.800781 Z M 198.964844 207.304688 C 198.792969 211.695312 198.5 216.085938 198.359375 220.480469 C 198.355469 220.863281 197.921875 220.875 197.621094 220.859375 C 191.675781 220.867188 185.730469 220.871094 179.78125 220.871094 C 179.253906 220.871094 178.726562 220.875 178.195312 220.867188 C 177.453125 220.859375 177.445312 220.851562 177.410156 220.097656 C 177.347656 218.691406 177.296875 217.285156 177.238281 215.878906 C 177.078125 212.082031 176.867188 208.285156 176.828125 204.488281 C 176.820312 204.167969 176.941406 204.054688 177.273438 204.042969 C 180.828125 204.03125 184.378906 204.042969 187.933594 204.039062 C 187.933594 204.050781 187.933594 204.058594 187.933594 204.066406 C 191.523438 204.066406 195.113281 203.996094 198.703125 204.03125 C 198.925781 204.039062 199.070312 204.207031 199.0625 204.453125 C 199.03125 205.402344 199 206.351562 198.964844 207.304688 Z M 200.460938 180.765625 C 200.222656 185.089844 200.066406 189.414062 199.769531 193.734375 C 199.730469 194.402344 199.714844 195.070312 199.6875 195.738281 C 199.703125 196.28125 199.578125 196.550781 199.003906 196.515625 C 191.578125 196.503906 184.148438 196.554688 176.722656 196.503906 C 176.546875 196.496094 176.40625 196.351562 176.394531 196.164062 C 176.097656 191.523438 176.027344 186.878906 175.84375 182.234375 C 175.824219 181.671875 175.824219 181.109375 175.820312 180.546875 C 175.820312 180.417969 175.960938 180.277344 176.085938 180.269531 C 180.097656 180.210938 184.109375 180.265625 188.121094 180.25 C 192.101562 180.265625 196.078125 180.226562 200.054688 180.265625 C 200.34375 180.28125 200.476562 180.457031 200.460938 180.765625 Z M 202.117188 149.230469 C 202.074219 150.25 202.070312 151.269531 202.03125 152.289062 C 201.75 159.078125 201.429688 165.875 200.945312 172.644531 C 200.804688 172.929688 200.484375 172.902344 200.214844 172.914062 C 193.03125 172.882812 185.847656 172.90625 178.664062 172.898438 C 177.851562 172.898438 177.042969 172.894531 176.234375 172.886719 C 175.953125 172.867188 175.503906 172.9375 175.429688 172.578125 C 175.273438 169.976562 175.269531 167.367188 175.097656 164.765625 C 174.878906 159.386719 174.570312 154.003906 174.535156 148.617188 C 174.535156 148.496094 174.683594 148.359375 174.816406 148.355469 C 179.324219 148.28125 183.832031 148.347656 188.339844 148.324219 C 188.339844 148.324219 188.339844 148.324219 188.339844 148.328125 C 192.632812 148.335938 196.933594 148.316406 201.226562 148.335938 C 202.101562 148.355469 202.144531 148.40625 202.117188 149.230469 Z M 228.171875 204.402344 C 227.261719 209.566406 226.359375 214.730469 225.449219 219.894531 C 225.359375 220.195312 225.371094 220.667969 225.039062 220.804688 C 218.882812 220.917969 212.710938 220.816406 206.550781 220.855469 C 205.550781 220.855469 205.539062 220.847656 205.570312 219.878906 C 205.714844 216.78125 205.886719 213.6875 206.039062 210.59375 C 206.183594 208.488281 206.238281 206.367188 206.445312 204.273438 C 206.476562 204.191406 206.582031 204.089844 206.664062 204.082031 C 210.214844 203.980469 213.777344 204.074219 217.332031 204.042969 C 217.332031 204.054688 217.332031 204.066406 217.332031 204.078125 C 220.886719 204.085938 224.445312 203.933594 227.996094 204.066406 C 228.113281 204.097656 228.207031 204.285156 228.171875 204.402344 Z M 232.433594 181.011719 C 231.84375 184.585938 231.167969 188.144531 230.53125 191.710938 C 230.234375 193.230469 230.039062 194.773438 229.667969 196.273438 C 229.636719 196.351562 229.527344 196.457031 229.445312 196.460938 C 225.753906 196.574219 222.054688 196.46875 218.355469 196.503906 C 218.355469 196.511719 218.355469 196.519531 218.355469 196.527344 C 214.695312 196.519531 211.03125 196.539062 207.371094 196.519531 C 207.078125 196.511719 206.945312 196.359375 206.945312 196.042969 C 207.050781 193.40625 207.210938 190.769531 207.332031 188.128906 C 207.457031 185.667969 207.578125 183.207031 207.707031 180.75 C 207.722656 180.382812 207.847656 180.269531 208.242188 180.261719 C 216.257812 180.320312 224.304688 180.132812 232.308594 180.34375 C 232.527344 180.460938 232.441406 180.804688 232.433594 181.011719 Z M 248.046875 204.46875 C 247.140625 207.683594 246.226562 210.890625 245.328125 214.105469 C 244.097656 218.617188 239.632812 221.207031 235.097656 220.820312 C 235.097656 220.828125 235.097656 220.84375 235.097656 220.851562 C 234.660156 220.78125 233.019531 221.046875 232.886719 220.621094 C 233.457031 216.070312 234.433594 211.546875 235.167969 207.011719 C 235.316406 206.144531 235.476562 205.28125 235.636719 204.417969 C 235.675781 204.191406 235.84375 204.042969 236.070312 204.035156 C 239.972656 204.027344 243.875 203.929688 247.773438 204.023438 C 248.023438 204.039062 248.121094 204.207031 248.046875 204.46875 Z M 254.902344 180.941406 C 253.449219 185.972656 252.042969 191.019531 250.609375 196.054688 C 250.507812 196.414062 250.386719 196.503906 250.007812 196.515625 C 245.960938 196.527344 241.917969 196.527344 237.875 196.527344 C 237.660156 196.5 237.3125 196.585938 237.21875 196.339844 C 237.285156 195.085938 237.609375 193.835938 237.785156 192.589844 C 238.332031 189.441406 238.902344 186.292969 239.476562 183.148438 C 239.660156 182.609375 239.75 180.367188 240.269531 180.289062 C 242.691406 180.179688 245.125 180.277344 247.546875 180.246094 C 247.546875 180.25 247.546875 180.25 247.546875 180.253906 C 249.832031 180.257812 252.121094 180.246094 254.40625 180.261719 C 254.941406 180.265625 255.070312 180.351562 254.902344 180.941406 Z M 264.070312 148.949219 C 261.925781 156.816406 259.605469 164.640625 257.378906 172.488281 C 257.296875 172.773438 257.136719 172.886719 256.839844 172.894531 C 251.773438 172.871094 246.707031 172.941406 241.640625 172.84375 C 241.566406 172.839844 241.457031 172.695312 241.472656 172.613281 C 242.382812 167.347656 243.34375 162.089844 244.339844 156.839844 C 244.828125 154.175781 245.308594 151.511719 245.789062 148.847656 C 245.859375 148.480469 245.996094 148.347656 246.34375 148.339844 C 249.230469 148.316406 252.117188 148.335938 255 148.328125 C 255 148.324219 255 148.324219 255 148.320312 C 257.886719 148.324219 260.773438 148.304688 263.65625 148.328125 C 264.097656 148.34375 264.183594 148.484375 264.070312 148.949219 Z M 264.070312 148.949219 " fill-opacity="1" fill-rule="nonzero"/></g><g clip-path="url(#97909ad642)"><path fill="#ffffff" d="M 126.675781 265.269531 C 119.097656 262.945312 110.507812 267.101562 107.476562 274.394531 C 102.945312 284.261719 111.242188 296.320312 121.945312 296.058594 C 140.457031 296.222656 144.433594 270.714844 126.675781 265.269531 Z M 123.589844 286.992188 C 113.730469 288.359375 112.417969 273.824219 122.621094 273.78125 C 130.53125 273.96875 131.347656 285.472656 123.589844 286.992188 Z M 123.589844 286.992188 " fill-opacity="1" fill-rule="nonzero"/></g><g clip-path="url(#dcf073acbb)"><path fill="#ffffff" d="M 239.527344 265.566406 C 222.84375 271.984375 227.042969 295.886719 244.964844 296.046875 C 253.503906 296.246094 260.925781 288.859375 260.859375 280.308594 C 261.039062 269.601562 249.445312 261.804688 239.527344 265.566406 Z M 246.855469 286.875 C 236.914062 289.070312 234.695312 274.128906 245.109375 273.785156 C 252.855469 273.714844 254.234375 284.816406 246.855469 286.875 Z M 246.855469 286.875 " fill-opacity="1" fill-rule="nonzero"/></g></svg>